<svg width="19" height="19" viewBox="0 0 19 19" fill="none" xmlns="http://www.w3.org/2000/svg">
<g clip-path="url(#clip0_672_1342)">
<path d="M9.69102 10.5404C12.1671 10.5404 14.1743 8.53318 14.1743 6.05714C14.1743 3.58111 12.1671 1.57388 9.69102 1.57388C7.21499 1.57388 5.20776 3.58111 5.20776 6.05714C5.20776 8.53318 7.21499 10.5404 9.69102 10.5404Z" fill="url(#paint0_linear_672_1342)"/>
<path d="M17.2844 17.4261H2.08034C1.484 17.4261 1.04354 16.8829 1.15028 16.2963C1.83122 12.5535 5.40674 11.2518 9.6902 11.2518C13.9909 11.2518 17.5771 12.5645 18.2211 16.3377C18.3185 16.9088 17.8638 17.4261 17.2844 17.4261Z" fill="url(#paint1_linear_672_1342)"/>
</g>
<defs>
<linearGradient id="paint0_linear_672_1342" x1="2.39292" y1="-1.9408" x2="18.956" y2="16.2104" gradientUnits="userSpaceOnUse">
<stop stop-color="#97E0FF"/>
<stop offset="1" stop-color="#1075FF"/>
</linearGradient>
<linearGradient id="paint1_linear_672_1342" x1="-2.53018" y1="2.55165" x2="14.0329" y2="20.7029" gradientUnits="userSpaceOnUse">
<stop stop-color="#97E0FF"/>
<stop offset="1" stop-color="#1075FF"/>
</linearGradient>
<clipPath id="clip0_672_1342">
<rect width="18" height="18" fill="white" transform="translate(0.684326 0.5)"/>
</clipPath>
</defs>
</svg>
