<svg width="18" height="19" viewBox="0 0 18 19" fill="none" xmlns="http://www.w3.org/2000/svg">
<g clip-path="url(#clip0_583_68)">
<path d="M15.7011 8.15252V18.368H2.29911V8.15252L9.0379 1.61549L15.7011 8.15252Z" fill="#E9EAEF"/>
<path d="M12.4219 4.54576V2.65878H15.7724V7.73658" fill="#9EB1B7"/>
<path d="M9.6416 16.2272H17.7327V18.368H9.6416V16.2272ZM0.267326 16.2272H3.10384V18.368H0.267326V16.2272Z" fill="#85C10D"/>
<path d="M15.7011 8.55351V10.463L9.0001 4.06494L2.29911 10.463V8.55351L8.46794 2.67841L9.0001 2.18401L9.53191 2.67841L15.7011 8.55351Z" fill="#D2D4D8"/>
<path d="M9 3.00237L1.37046 10.2865L0.303642 9.39096L8.46801 1.61552L9 1.12137L9.53195 1.61552L17.6963 9.39096L16.6295 10.2865L9 3.00237Z" fill="#EA4756"/>
<path d="M3.93862 10.7142H8.35843V18.3679H3.93862V10.7142Z" fill="#C97523"/>
<path d="M9.6416 10.7142H14.6748V15.134H9.6416V10.7142Z" fill="#A0D9F2"/>
<path d="M9.6416 10.7142H14.6748V12.0572H9.6416V10.7142Z" fill="#C97523"/>
<path d="M9 8.52883C9.67911 8.52883 10.2296 7.97831 10.2296 7.29921C10.2296 6.6201 9.67911 6.06958 9 6.06958C8.3209 6.06958 7.77038 6.6201 7.77038 7.29921C7.77038 7.97831 8.3209 8.52883 9 8.52883Z" fill="#413740"/>
<path d="M9.37437 10.7142V15.1341C9.37437 15.205 9.40254 15.2729 9.45267 15.3231C9.50281 15.3732 9.5708 15.4014 9.6417 15.4014H14.6748C14.8224 15.4014 14.9421 15.2817 14.9421 15.1341V10.7142C14.9421 10.6433 14.9139 10.5753 14.8638 10.5252C14.8137 10.4751 14.7457 10.4469 14.6748 10.4469H9.6417C9.6066 10.4469 9.57183 10.4538 9.5394 10.4673C9.50696 10.4807 9.47749 10.5004 9.45266 10.5252C9.42784 10.55 9.40815 10.5795 9.39471 10.6119C9.38128 10.6444 9.37437 10.6791 9.37437 10.7142ZM9.90903 14.8667V12.3246H14.4074V14.8667H9.90903ZM14.4074 10.9816V11.79H9.90903V10.9816H14.4074Z" fill="black"/>
<path d="M17.7327 15.96H15.9684V10.025L16.4449 10.4799C16.4946 10.5274 16.5608 10.5539 16.6295 10.5539C16.6905 10.5539 16.7515 10.5331 16.8014 10.4913L17.8624 9.60067C17.8982 9.57061 17.928 9.53324 17.9449 9.48972C17.9645 9.44014 17.9689 9.38583 17.9575 9.33375C17.946 9.28167 17.9193 9.23419 17.8807 9.19739L16.0397 7.44411V4.91367C16.0386 4.84352 16.0099 4.77663 15.9599 4.72743C15.9099 4.67822 15.8426 4.65065 15.7724 4.65065C15.7022 4.65065 15.6349 4.67822 15.5849 4.72743C15.5349 4.77663 15.5062 4.84352 15.5051 4.91367V6.93495L12.6892 4.25326V2.92611H15.5051V3.66608C15.5062 3.73623 15.5349 3.80312 15.5849 3.85233C15.6349 3.90153 15.7022 3.92911 15.7724 3.92911C15.8426 3.92911 15.9099 3.90153 15.9599 3.85233C16.0099 3.80312 16.0386 3.73623 16.0397 3.66608V2.65879C16.0397 2.58789 16.0115 2.5199 15.9614 2.46977C15.9113 2.41964 15.8433 2.39147 15.7724 2.39146H12.4219C12.351 2.39147 12.283 2.41964 12.2329 2.46977C12.1827 2.5199 12.1546 2.58789 12.1546 2.65879V3.74406L9.71388 1.41967L9.18193 0.925513C9.13248 0.879579 9.06748 0.85405 8.99998 0.85405C8.93249 0.85405 8.86749 0.879579 8.81803 0.925513L8.28366 1.42195L0.119285 9.19736C0.0806974 9.23415 0.0539736 9.28163 0.0425367 9.33371C0.0310999 9.38579 0.0354709 9.4401 0.0550898 9.48968C0.0720703 9.5332 0.101848 9.57057 0.137637 9.60063L1.19862 10.4913C1.24902 10.5336 1.31326 10.5558 1.37904 10.5537C1.44481 10.5516 1.5075 10.5253 1.5551 10.4799L2.03182 10.0247V11.7745C2.03296 11.8446 2.06162 11.9115 2.11163 11.9607C2.16164 12.0099 2.22899 12.0375 2.29915 12.0375C2.36931 12.0375 2.43665 12.0099 2.48666 11.9607C2.53667 11.9115 2.56534 11.8446 2.56648 11.7745V9.51426L9 3.37193L15.4338 9.5145V15.9601H9.64171C9.57081 15.9601 9.50282 15.9883 9.45269 16.0384C9.40256 16.0885 9.37439 16.1565 9.37438 16.2274V18.1007H8.62587V10.7143C8.62586 10.6434 8.59769 10.5754 8.54756 10.5253C8.49743 10.4751 8.42944 10.447 8.35854 10.447H3.93873C3.86783 10.447 3.79984 10.4751 3.74971 10.5253C3.69958 10.5754 3.67141 10.6434 3.6714 10.7143V18.1007H3.37099V16.2274C3.37098 16.1565 3.34281 16.0885 3.29268 16.0384C3.24255 15.9883 3.17456 15.9601 3.10366 15.9601H2.56644V13.0221C2.5653 12.9519 2.53664 12.885 2.48663 12.8358C2.43662 12.7866 2.36927 12.759 2.29911 12.759C2.22896 12.759 2.16161 12.7866 2.1116 12.8358C2.06159 12.885 2.03292 12.9519 2.03179 13.0221V15.9601H0.267328C0.196431 15.9601 0.128441 15.9883 0.0783089 16.0384C0.0281772 16.0885 9.3218e-06 16.1565 0 16.2274L0 18.368C9.3218e-06 18.4389 0.0281772 18.5069 0.0783089 18.5571C0.128441 18.6072 0.196431 18.6354 0.267328 18.6354H3.10366L3.10433 18.6353H9.64097L9.64164 18.6354H17.7327C17.8036 18.6354 17.8716 18.6072 17.9217 18.5571C17.9718 18.5069 18 18.4389 18 18.368V16.2274C18 16.1923 17.9931 16.1575 17.9797 16.1251C17.9662 16.0927 17.9465 16.0632 17.9217 16.0384C17.8969 16.0135 17.8674 15.9938 17.835 15.9804C17.8025 15.967 17.7678 15.96 17.7327 15.96ZM9 2.73504C8.93123 2.73498 8.86509 2.76148 8.81539 2.80901L1.35904 9.92787L0.704496 9.37838L8.64998 1.81138L9 1.48622L9.34755 1.80913L17.2955 9.37838L16.6409 9.92787L9.18461 2.80897C9.1349 2.76145 9.06877 2.73496 9 2.73504ZM0.534656 16.4947H2.83634V18.1007H2.29911V18.1007H0.534656V16.4947ZM4.20606 18.1006V10.9816H8.09121V18.1006H4.20606ZM17.4653 18.1007H15.7011V18.1006H9.90903V16.4947H17.4654V18.1007H17.4653Z" fill="black"/>
<path d="M7.48761 14.2492H6.84605C6.77515 14.2492 6.70715 14.2774 6.65702 14.3275C6.60688 14.3777 6.57872 14.4457 6.57872 14.5166C6.57872 14.5875 6.60688 14.6555 6.65702 14.7056C6.70715 14.7557 6.77515 14.7839 6.84605 14.7839H7.48761C7.55851 14.7839 7.62651 14.7557 7.67664 14.7056C7.72678 14.6555 7.75494 14.5875 7.75494 14.5166C7.75494 14.4457 7.72678 14.3777 7.67664 14.3275C7.62651 14.2774 7.55851 14.2492 7.48761 14.2492ZM9.00011 5.80214C8.17467 5.80214 7.50315 6.47366 7.50315 7.29913C7.50315 8.12456 8.17467 8.79608 9.00011 8.79608C9.82554 8.79608 10.4971 8.12456 10.4971 7.29913C10.4971 6.47369 9.82554 5.80214 9.00011 5.80214ZM9.00011 8.26142C8.46949 8.26142 8.03781 7.82974 8.03781 7.29913C8.03781 6.76851 8.46949 6.3368 9.00011 6.3368C9.53072 6.3368 9.9624 6.76848 9.9624 7.29913C9.9624 7.82974 9.53072 8.26142 9.00011 8.26142Z" fill="black"/>
</g>
<defs>
<clipPath id="clip0_583_68">
<rect width="18" height="18" fill="white" transform="translate(0 0.744705)"/>
</clipPath>
</defs>
</svg>
