<svg width="10" height="11" viewBox="0 0 10 11" fill="none" xmlns="http://www.w3.org/2000/svg">
<g clip-path="url(#clip0_410_1480)">
<path d="M0.412012 5.20313C0.287207 5.03711 0.213184 4.83106 0.213184 4.60781C0.213184 4.43887 0.255567 4.27969 0.330567 4.14043C0.401856 4.00703 0.503223 3.8918 0.625098 3.80352C0.495801 3.632 0.425992 3.42299 0.42627 3.2082C0.42627 2.87773 0.588575 2.58438 0.837793 2.40371C0.708732 2.23225 0.639068 2.0234 0.639356 1.80879C0.639356 1.26133 1.08467 0.816016 1.63193 0.816016H4.75732C5.27217 0.816016 5.77744 0.907618 6.25947 1.08828L7.82275 1.67441V5.80625H7.73896C6.56357 7.04805 5.28682 8.45938 5.09365 8.76836V9.9207C5.09365 10.1529 4.90479 10.3418 4.67256 10.3418C3.71475 10.3418 2.93545 9.5627 2.93545 8.60488V8.08516L3.24971 7.0002H0.992871C0.44541 7.0002 9.77516e-05 6.55488 9.77516e-05 6.00742C9.77516e-05 5.67695 0.162598 5.38379 0.412012 5.20313Z" fill="#FFBD86"/>
<path d="M0.837793 2.40366C0.708732 2.2322 0.639068 2.02335 0.639356 1.80874C0.639356 1.26128 1.08467 0.815967 1.63193 0.815967H4.75732C5.27217 0.815967 5.77744 0.907568 6.25947 1.08823L7.82275 1.67437V4.14038H0.330567C0.401856 4.00698 0.503223 3.89175 0.625098 3.80347C0.495801 3.63196 0.425992 3.42294 0.42627 3.20815C0.42627 2.87769 0.588575 2.58433 0.837793 2.40366Z" fill="#F6A96C"/>
<path d="M10 7.19336H7.23672V1.00742H10V7.19336Z" fill="#006EFF"/>
<path d="M10 4.14038H7.23672V1.00737H10V4.14038Z" fill="#005FE4"/>
</g>
<defs>
<clipPath id="clip0_410_1480">
<rect width="10" height="10" fill="white" transform="matrix(-1 0 0 -1 10 10.5789)"/>
</clipPath>
</defs>
</svg>
