<svg width="18" height="19" viewBox="0 0 18 19" fill="none" xmlns="http://www.w3.org/2000/svg">
<g clip-path="url(#clip0_425_2327)">
<mask id="mask0_425_2327" style="mask-type:luminance" maskUnits="userSpaceOnUse" x="0" y="0" width="18" height="19">
<path d="M0 0.744743H17.9999V18.7447H0V0.744743Z" fill="white"/>
</mask>
<g mask="url(#mask0_425_2327)">
<path d="M0.351562 15.8619V17.2681C0.351562 17.8894 0.855245 18.3931 1.47656 18.3931H16.5234C17.1447 18.3931 17.6484 17.8894 17.6484 17.2681V15.8619H0.351562Z" fill="#E1E3E9"/>
<path d="M0.351562 7.14316V15.8619C0.351562 16.4832 0.855245 16.9869 1.47656 16.9869H16.5234C17.1447 16.9869 17.6484 16.4832 17.6484 15.8619V7.14316" fill="white"/>
<path d="M16.5937 2.92442H1.40625C0.82378 2.92442 0.351562 3.39664 0.351562 3.9791V7.14316H17.6484V3.9791C17.6484 3.39664 17.1762 2.92442 16.5937 2.92442Z" fill="#F5737F"/>
<path d="M3.0216 4.61191C2.59544 4.61191 2.24999 4.26643 2.24999 3.8403V1.8679C2.24999 1.44177 2.59544 1.09629 3.0216 1.09629C3.44776 1.09629 3.79321 1.44177 3.79321 1.8679V3.8403C3.79321 4.26643 3.44776 4.61191 3.0216 4.61191Z" fill="#E1E3E9"/>
<path d="M14.9783 4.61191C14.5522 4.61191 14.2067 4.26643 14.2067 3.8403V1.8679C14.2067 1.44177 14.5522 1.09629 14.9783 1.09629C15.4045 1.09629 15.75 1.44177 15.75 1.8679V3.8403C15.75 4.26643 15.4045 4.61191 14.9783 4.61191Z" fill="#E1E3E9"/>
<path d="M9.00444 4.61191C8.57828 4.61191 8.23283 4.26643 8.23283 3.8403V1.8679C8.23283 1.44177 8.57828 1.09629 9.00444 1.09629C9.4306 1.09629 9.77605 1.44177 9.77605 1.8679V3.8403C9.77605 4.26643 9.4306 4.61191 9.00444 4.61191Z" fill="#E1E3E9"/>
<path d="M9.40996 9.2943L10.0947 10.6817L11.6257 10.9041C11.9993 10.9584 12.1484 11.4175 11.8781 11.681L10.7703 12.7609L11.0318 14.2858C11.0956 14.6578 10.7051 14.9416 10.371 14.7659L9.00152 14.046L7.63212 14.7659C7.29799 14.9416 6.90748 14.6578 6.97129 14.2858L7.23281 12.7609L6.12494 11.681C5.85462 11.4175 6.00379 10.9584 6.37736 10.9041L7.90841 10.6817L8.59311 9.2943C8.76017 8.95578 9.2429 8.95578 9.40996 9.2943Z" fill="#FFCB7C"/>
</g>
</g>
<defs>
<clipPath id="clip0_425_2327">
<rect width="18" height="18" fill="white" transform="translate(0 0.74469)"/>
</clipPath>
</defs>
</svg>
