<svg width="10" height="11" viewBox="0 0 10 11" fill="none" xmlns="http://www.w3.org/2000/svg">
<g clip-path="url(#clip0_410_1472)">
<path d="M9.58799 5.95459C9.71279 6.1206 9.78682 6.32666 9.78682 6.5499C9.78682 6.71885 9.74443 6.87803 9.66943 7.01728C9.59814 7.15068 9.49678 7.26592 9.3749 7.3542C9.5042 7.52571 9.57401 7.73472 9.57373 7.94951C9.57373 8.27998 9.41143 8.57334 9.16221 8.754C9.29127 8.92547 9.36093 9.13432 9.36064 9.34893C9.36064 9.89639 8.91533 10.3417 8.36807 10.3417H5.24268C4.72783 10.3417 4.22256 10.2501 3.74053 10.0694L2.17725 9.4833V5.35146H2.26104C3.43643 4.10967 4.71318 2.69834 4.90635 2.38936V1.23701C4.90635 1.00479 5.09521 0.815918 5.32744 0.815918C6.28525 0.815918 7.06455 1.59502 7.06455 2.55283V3.07256L6.75029 4.15752H9.00713C9.55459 4.15752 9.9999 4.60283 9.9999 5.15029C9.9999 5.48076 9.8374 5.77393 9.58799 5.95459Z" fill="#FFBD86"/>
<path d="M9.16221 8.75405C9.29127 8.92551 9.36093 9.13437 9.36064 9.34897C9.36064 9.89644 8.91533 10.3417 8.36807 10.3417H5.24268C4.72783 10.3417 4.22256 10.2501 3.74053 10.0695L2.17725 9.48335V7.01733H9.66943C9.59814 7.15073 9.49678 7.26597 9.3749 7.35425C9.5042 7.52576 9.57401 7.73477 9.57373 7.94956C9.57373 8.28003 9.41143 8.57339 9.16221 8.75405Z" fill="#F6A96C"/>
<path d="M0 3.96436H2.76328V10.1503H0V3.96436Z" fill="#006EFF"/>
<path d="M0 7.01733H2.76328V10.1503H0V7.01733Z" fill="#005FE4"/>
</g>
<defs>
<clipPath id="clip0_410_1472">
<rect width="10" height="10" fill="white" transform="translate(0 0.578857)"/>
</clipPath>
</defs>
</svg>
