<svg width="21" height="20" viewBox="0 0 21 20" fill="none" xmlns="http://www.w3.org/2000/svg">
<path d="M16.2713 8.99796V5.77161C16.2713 2.58401 13.6873 0 10.5001 0C7.31258 0 4.72853 2.58401 4.72853 5.77161V8.99796M6.80977 8.99796V5.77161C6.80977 3.73646 8.46538 2.08128 10.5001 2.08128C12.5348 2.08128 14.19 3.7365 14.19 5.77161V8.99796" fill="#D3DAE0"/>
<path d="M10.8368 0.010039C10.7247 0.0034692 10.6124 0.000121483 10.5001 0C7.31258 0 4.72853 2.58401 4.72853 5.77161V8.99796H5.40185V5.77161C5.40185 2.69705 7.80593 0.184413 10.8368 0.010039ZM11.1735 2.08124C11.06 2.08124 10.9477 2.08667 10.8368 2.09675C12.7143 2.26737 14.19 3.84994 14.19 5.77157V8.99792H14.8634V5.77157C14.8634 3.73646 13.2082 2.08124 11.1735 2.08124Z" fill="#899EA8"/>
<path d="M2.81815 8.99792H18.1818V20H2.81815V8.99792Z" fill="#F79F00"/>
<path d="M2.81815 8.99792H4.16474V20H2.81815V8.99792Z" fill="#E48900"/>
<path d="M12.1527 13.4662C12.1527 12.5535 11.4127 11.8135 10.5 11.8135C9.58725 11.8135 8.84729 12.5535 8.84729 13.4662C8.84729 14.0949 9.19838 14.6415 9.7151 14.9209L9.44916 16.9552H11.5508L11.2849 14.9209C11.8016 14.6415 12.1527 14.0949 12.1527 13.4662Z" fill="#3E3D4C"/>
</svg>
