<svg width="18" height="19" viewBox="0 0 18 19" fill="none" xmlns="http://www.w3.org/2000/svg">
<g clip-path="url(#clip0_425_2351)">
<path d="M2.03226 10.3253H15.9677V18.4544H2.03226V10.3253Z" fill="#ECECEC"/>
<path d="M2.03226 17.5834H15.9677V18.4544H2.03226V17.5834Z" fill="#B6C1CE"/>
<path d="M15.0968 3.93823H2.90323L1.16129 9.16404V10.035C1.16129 10.5161 1.5512 10.906 2.03226 10.906C2.51333 10.906 2.90323 10.5161 2.90323 10.035C2.90323 10.5161 3.29313 10.906 3.7742 10.906C4.25526 10.906 4.64516 10.5161 4.64516 10.035C4.64516 10.5161 5.03507 10.906 5.51613 10.906C5.9972 10.906 6.3871 10.5161 6.3871 10.035C6.3871 10.5161 6.777 10.906 7.25807 10.906C7.73913 10.906 8.12903 10.5161 8.12903 10.035C8.12903 10.5161 8.51894 10.906 9 10.906C9.48107 10.906 9.87097 10.5161 9.87097 10.035C9.87097 10.5161 10.2609 10.906 10.7419 10.906C11.223 10.906 11.6129 10.5161 11.6129 10.035C11.6129 10.5161 12.0028 10.906 12.4839 10.906C12.9649 10.906 13.3548 10.5161 13.3548 10.035C13.3548 10.5161 13.7447 10.906 14.2258 10.906C14.7069 10.906 15.0968 10.5161 15.0968 10.035C15.0968 10.5161 15.4867 10.906 15.9677 10.906C16.4488 10.906 16.8387 10.5161 16.8387 10.035V9.16404L15.0968 3.93823Z" fill="#FB5968"/>
<path d="M2.03226 10.906C2.51333 10.906 2.90323 10.5161 2.90323 10.035C2.90323 10.5161 3.29313 10.906 3.7742 10.906C4.25526 10.906 4.64516 10.5161 4.64516 10.035C4.64516 10.5161 5.03507 10.906 5.51613 10.906C5.9972 10.906 6.3871 10.5161 6.3871 10.035C6.3871 10.5161 6.777 10.906 7.25807 10.906C7.73913 10.906 8.12903 10.5161 8.12903 10.035C8.12903 10.5161 8.51894 10.906 9 10.906C9.48107 10.906 9.87097 10.5161 9.87097 10.035C9.87097 10.5161 10.2609 10.906 10.7419 10.906C11.223 10.906 11.6129 10.5161 11.6129 10.035C11.6129 10.5161 12.0028 10.906 12.4839 10.906C12.9649 10.906 13.3548 10.5161 13.3548 10.035C13.3548 10.5161 13.7447 10.906 14.2258 10.906C14.7069 10.906 15.0968 10.5161 15.0968 10.035C15.0968 10.5161 15.4867 10.906 15.9677 10.906C16.4488 10.906 16.8387 10.5161 16.8387 10.035V9.16403H1.16129V10.035C1.16129 10.5161 1.5512 10.906 2.03226 10.906Z" fill="#CD2C5A"/>
<path d="M9 8.00275C10.9241 8.00275 12.4839 6.44296 12.4839 4.51887C12.4839 2.59479 10.9241 1.035 9 1.035C7.07591 1.035 5.51613 2.59479 5.51613 4.51887C5.51613 6.44296 7.07591 8.00275 9 8.00275Z" fill="#FFEAA7"/>
<path d="M4.64516 16.1318C4.62745 16.1318 4.6109 16.1358 4.59348 16.137C4.47503 15.7967 4.15481 15.5511 3.77419 15.5511C3.70364 15.5511 3.63571 15.5619 3.5701 15.5778C3.41042 15.3856 3.17264 15.2608 2.90322 15.2608C2.63381 15.2608 2.39603 15.3856 2.23635 15.5778C2.17074 15.5619 2.10281 15.5511 2.03226 15.5511C1.65164 15.5511 1.33142 15.7967 1.21297 16.137C1.19555 16.1358 1.179 16.1318 1.16129 16.1318C0.680225 16.1318 0.290321 16.5217 0.290321 17.0027V18.4544H5.51613V17.0027C5.51613 16.5217 5.12622 16.1318 4.64516 16.1318ZM16.8387 16.1318C16.821 16.1318 16.8044 16.1358 16.787 16.137C16.6686 15.7967 16.3484 15.5511 15.9677 15.5511C15.8972 15.5511 15.8293 15.5619 15.7636 15.5778C15.604 15.3856 15.3662 15.2608 15.0968 15.2608C14.8274 15.2608 14.5896 15.3856 14.4299 15.5778C14.3643 15.5619 14.2964 15.5511 14.2258 15.5511C13.8452 15.5511 13.525 15.7967 13.4065 16.137C13.3891 16.1358 13.3725 16.1318 13.3548 16.1318C12.8738 16.1318 12.4839 16.5217 12.4839 17.0027V18.4544H17.7097V17.0027C17.7097 16.5217 17.3198 16.1318 16.8387 16.1318Z" fill="#92E0C0"/>
<path d="M12.4839 17.2931H17.7097V18.4544H12.4839V17.2931ZM0.290321 17.2931H5.51613V18.4544H0.290321V17.2931Z" fill="#D3A06C"/>
<path d="M6.67742 12.0673H11.3226V18.4544H6.67742V12.0673Z" fill="#EABD8C"/>
<path d="M6.67742 17.5834H11.3226V18.4544H6.67742V17.5834Z" fill="#D3A06C"/>
<path d="M3.48387 12.3576H5.22581V14.0995H3.48387V12.3576ZM12.7742 12.3576H14.5161V14.0995H12.7742V12.3576Z" fill="#39C3FC"/>
<path d="M16.974 15.8493C16.8181 15.5744 16.5617 15.3758 16.2581 15.298V11.1551C16.7574 11.0253 17.129 10.5747 17.129 10.035V9.11701L15.3061 3.64792H12.6688C12.274 1.98611 10.7808 0.74469 9 0.74469C7.21916 0.74469 5.72603 1.98611 5.33119 3.64792H2.6939L0.870968 9.11701V10.035C0.870968 10.5747 1.24258 11.0253 1.74194 11.1551V15.298C1.43826 15.3755 1.1819 15.5744 1.026 15.8493C0.449129 15.9167 0 16.4082 0 17.0028V18.7447H18V17.0028C18 16.4082 17.5509 15.9167 16.974 15.8493ZM16.5127 16.2325L16.5841 16.4375L16.801 16.427C16.8175 16.4262 16.8335 16.4241 16.8387 16.4221C17.1589 16.4221 17.4194 16.6825 17.4194 17.0028H12.7742C12.7742 16.6825 13.0346 16.4221 13.3438 16.4221L13.6092 16.4375L13.6806 16.2325C13.7622 15.9985 13.9814 15.8415 14.2258 15.8415C14.2662 15.8415 14.3094 15.8476 14.3617 15.8598L14.5376 15.9021L14.6532 15.7631C14.8773 15.4931 15.316 15.4931 15.5404 15.7631L15.6559 15.9021L15.8319 15.8598C15.8841 15.8476 15.9274 15.8415 15.9677 15.8415C16.2122 15.8415 16.4314 15.9985 16.5127 16.2325ZM15.9677 10.6157C15.6475 10.6157 15.3871 10.3552 15.3871 10.035V9.45437H16.5484V10.035C16.5484 10.3552 16.288 10.6157 15.9677 10.6157ZM7.54839 4.80921C7.22816 4.80921 6.96774 4.54879 6.96774 4.22856C6.96774 3.79453 7.33123 3.06727 7.54839 3.06727C7.76555 3.06727 8.12903 3.79453 8.12903 4.22856C8.12903 4.54879 7.86861 4.80921 7.54839 4.80921ZM7.8959 8.12759L7.85439 8.87372H6.71139L6.85103 7.6175C7.16777 7.83785 7.51877 8.01175 7.8959 8.12759ZM11.149 7.6175L11.2886 8.87372H10.1456L10.1041 8.12759C10.4812 8.01175 10.8322 7.83785 11.149 7.6175ZM13.6007 8.87372L12.8265 4.22856H13.7026L14.735 8.87372H13.6007ZM13.0123 8.87372H11.8727L11.6835 7.16895C12.0423 6.80575 12.3254 6.36911 12.5144 5.88543L13.0123 8.87372ZM9.52955 8.25156L9.5641 8.87372H8.4359L8.47045 8.25156C8.64406 8.27595 8.81971 8.29308 9 8.29308C9.18029 8.29308 9.35594 8.27595 9.52955 8.25156ZM6.12726 8.87372H4.98774L5.48565 5.88572C5.67436 6.3694 5.95771 6.80575 6.31655 7.16924L6.12726 8.87372ZM4.39926 8.87372H3.26497L4.29735 4.22856H5.17355L4.39926 8.87372ZM3.19355 9.45437H4.35484V10.035C4.35484 10.3552 4.09442 10.6157 3.77419 10.6157C3.45397 10.6157 3.19355 10.3552 3.19355 10.035V9.45437ZM4.93548 9.45437H6.09677V10.035C6.09677 10.3552 5.83635 10.6157 5.51613 10.6157C5.1959 10.6157 4.93548 10.3552 4.93548 10.035V9.45437ZM6.67742 9.45437H7.83871V10.035C7.83871 10.3552 7.57829 10.6157 7.25806 10.6157C6.93784 10.6157 6.67742 10.3552 6.67742 10.035V9.45437ZM8.41935 9.45437H9.58064V10.035C9.58064 10.3552 9.32023 10.6157 9 10.6157C8.67977 10.6157 8.41935 10.3552 8.41935 10.035V9.45437ZM10.1613 9.45437H11.3226V10.035C11.3226 10.3552 11.0622 10.6157 10.7419 10.6157C10.4217 10.6157 10.1613 10.3552 10.1613 10.035V9.45437ZM11.9032 9.45437H13.0645V10.035C13.0645 10.3552 12.8041 10.6157 12.4839 10.6157C12.1636 10.6157 11.9032 10.3552 11.9032 10.035V9.45437ZM13.6452 9.45437H14.8065V10.035C14.8065 10.3552 14.546 10.6157 14.2258 10.6157C13.9056 10.6157 13.6452 10.3552 13.6452 10.035V9.45437ZM16.436 8.87372H15.3296L14.2972 4.22856H14.8875L16.436 8.87372ZM9 1.32534C10.7608 1.32534 12.1935 2.75808 12.1935 4.51888C12.1935 5.63721 11.6146 6.6214 10.7419 7.19217V5.34863C11.2413 5.21885 11.6129 4.76827 11.6129 4.22856V2.77695H11.0323V4.22856C11.0323 4.44253 10.9147 4.62775 10.7419 4.7285V2.77695H10.1613V4.7285C9.98855 4.62775 9.87097 4.44253 9.87097 4.22856V2.77695H9.29032V4.22856C9.29032 4.76827 9.66193 5.21885 10.1613 5.34863V7.49063C9.80071 7.63201 9.40993 7.71243 9 7.71243C8.59006 7.71243 8.19929 7.63201 7.83871 7.49063V5.34863C8.33806 5.21885 8.70968 4.76827 8.70968 4.22856C8.70968 3.63021 8.25735 2.48663 7.54839 2.48663C6.83942 2.48663 6.3871 3.63021 6.3871 4.22856C6.3871 4.76827 6.75871 5.21885 7.25806 5.34863V7.19217C6.38535 6.6214 5.80645 5.63721 5.80645 4.51888C5.80645 2.75808 7.23919 1.32534 9 1.32534ZM3.11255 4.22856H3.70277L2.67039 8.87372H1.56397L3.11255 4.22856ZM1.45161 10.035V9.45437H2.6129V10.035C2.6129 10.3552 2.35248 10.6157 2.03226 10.6157C1.71203 10.6157 1.45161 10.3552 1.45161 10.035ZM1.15026 16.4221L1.41561 16.4375L1.48703 16.2325C1.56861 15.9985 1.78781 15.8415 2.03226 15.8415C2.07261 15.8415 2.11587 15.8476 2.16813 15.8598L2.34406 15.9021L2.45961 15.7631C2.68374 15.4931 3.12242 15.4931 3.34684 15.7631L3.46239 15.9021L3.63832 15.8598C3.69058 15.8476 3.73384 15.8415 3.77419 15.8415C4.01864 15.8415 4.23784 15.9985 4.31913 16.2325L4.39055 16.4375L4.60742 16.427C4.62397 16.4262 4.63994 16.4241 4.64516 16.4221C4.96539 16.4221 5.22581 16.6825 5.22581 17.0028H0.580645C0.580645 16.6825 0.841064 16.4221 1.15026 16.4221ZM0.580645 18.164V17.5834H5.22581V18.164H0.580645ZM11.0323 18.164H6.96774V12.3576H11.0323V18.164ZM12.1935 18.164H11.6129V11.7769H6.3871V18.164H5.80645V17.0028C5.80645 16.4082 5.35732 15.9167 4.78045 15.8493C4.56068 15.4617 4.14319 15.221 3.67171 15.2658C3.30619 14.9389 2.74239 14.8956 2.32258 15.1331V11.1557C2.55019 11.0964 2.75226 10.9733 2.90323 10.802C3.11603 11.0439 3.42784 11.1963 3.77419 11.1963C4.12055 11.1963 4.43235 11.0439 4.64516 10.8023C4.85797 11.0439 5.16977 11.1963 5.51613 11.1963C5.86248 11.1963 6.17429 11.0439 6.3871 10.8023C6.5999 11.0439 6.91171 11.1963 7.25806 11.1963C7.60442 11.1963 7.91623 11.0439 8.12903 10.8023C8.34184 11.0439 8.65364 11.1963 9 11.1963C9.34635 11.1963 9.65816 11.0439 9.87097 10.8023C10.0838 11.0439 10.3956 11.1963 10.7419 11.1963C11.0883 11.1963 11.4001 11.0439 11.6129 10.8023C11.8257 11.0439 12.1375 11.1963 12.4839 11.1963C12.8302 11.1963 13.142 11.0439 13.3548 10.8023C13.5676 11.0439 13.8795 11.1963 14.2258 11.1963C14.5722 11.1963 14.884 11.0439 15.0968 10.8023C15.2477 10.9736 15.4498 11.097 15.6774 11.1559V15.1334C15.2576 14.8956 14.6938 14.9389 14.3283 15.266C13.858 15.2208 13.439 15.462 13.2195 15.8496C12.6427 15.9167 12.1935 16.4082 12.1935 17.0028V18.164ZM12.7742 18.164V17.5834H17.4194V18.164H12.7742Z" fill="black"/>
<path d="M7.54839 14.9705H8.12903V15.5511H7.54839V14.9705ZM3.19355 14.3898H5.51613V12.0673H3.19355V14.3898ZM3.7742 12.6479H4.93549V13.8092H3.7742V12.6479ZM14.8065 12.0673H12.4839V14.3898H14.8065V12.0673ZM14.2258 13.8092H13.0645V12.6479H14.2258V13.8092Z" fill="black"/>
</g>
<defs>
<clipPath id="clip0_425_2351">
<rect width="18" height="18" fill="white" transform="translate(0 0.74469)"/>
</clipPath>
</defs>
</svg>
