<svg width="20" height="20" viewBox="0 0 20 20" fill="none" xmlns="http://www.w3.org/2000/svg">
<g clip-path="url(#clip0_405_53)">
<path d="M19.2662 17.609C19.724 18.0664 19.724 18.8086 19.2662 19.266C19.0373 19.4949 18.7377 19.6094 18.4377 19.6094C18.1377 19.6094 17.8381 19.4949 17.6092 19.266L13.8369 15.4937C14.4531 15.0092 15.0094 14.4529 15.4939 13.8367L19.2662 17.609Z" fill="#4DBBEB"/>
<path d="M13.8211 12.1645L15.4934 13.8367C15.0088 14.4529 14.4525 15.0092 13.8363 15.4938L12.1641 13.8215V13.8211C12.8 13.3594 13.359 12.8003 13.8207 12.1645H13.8211Z" fill="#FFF5CD"/>
<path d="M15.2344 7.8125C15.2344 9.43672 14.7098 10.941 13.8211 12.1645C13.3594 12.8003 12.8003 13.3594 12.1645 13.8211C10.941 14.7098 9.43672 15.2344 7.8125 15.2344C3.71992 15.2344 0.390625 11.9051 0.390625 7.8125C0.390625 3.71992 3.71992 0.390625 7.8125 0.390625C11.9051 0.390625 15.2344 3.71992 15.2344 7.8125Z" fill="#4DBBEB"/>
<path d="M7.8125 1.95312C11.0434 1.95312 13.6719 4.58164 13.6719 7.8125C13.6719 11.0434 11.0434 13.6719 7.8125 13.6719C4.58164 13.6719 1.95312 11.0434 1.95312 7.8125C1.95312 4.58164 4.58164 1.95312 7.8125 1.95312Z" fill="#BEE7F4"/>
<path d="M19.5422 17.3328L14.3282 12.1187C15.1776 10.8393 15.625 9.35762 15.625 7.8125C15.625 3.50469 12.1203 0 7.8125 0C3.50469 0 0 3.50469 0 7.8125C0 12.1203 3.50469 15.625 7.8125 15.625C9.35766 15.625 10.8393 15.1775 12.1187 14.3282L13.5599 15.7694L13.5605 15.77L17.3327 19.5422C17.628 19.8374 18.0203 20 18.4375 20C18.8547 20 19.247 19.8374 19.5421 19.5423C19.8374 19.2473 20 18.855 20 18.4375C20 18.02 19.8374 17.6277 19.5422 17.3328ZM12.7545 13.8591C13.1586 13.5286 13.5286 13.1586 13.8591 12.7545L14.9673 13.8628C14.6302 14.2607 14.2607 14.6302 13.8628 14.9673L12.7545 13.8591ZM0.78125 7.8125C0.78125 3.93547 3.93547 0.78125 7.8125 0.78125C11.6895 0.78125 14.8438 3.93547 14.8438 7.8125C14.8438 9.30371 14.3808 10.7292 13.505 11.935C13.0677 12.5378 12.5378 13.0676 11.935 13.505L11.9349 13.505C10.7292 14.3808 9.30371 14.8438 7.8125 14.8438C3.93547 14.8438 0.78125 11.6895 0.78125 7.8125ZM18.9898 18.9898C18.8421 19.1375 18.646 19.2188 18.4375 19.2188C18.229 19.2188 18.0329 19.1375 17.8852 18.9898L14.4166 15.5212C14.8124 15.1817 15.1816 14.8124 15.5212 14.4167L18.9899 17.8854C19.1375 18.0328 19.2188 18.2288 19.2188 18.4375C19.2188 18.6462 19.1375 18.8422 18.9898 18.9898Z" fill="black"/>
<path d="M14.0625 7.8125C14.0625 4.36621 11.2588 1.5625 7.8125 1.5625C4.36621 1.5625 1.5625 4.36621 1.5625 7.8125C1.5625 11.2588 4.36621 14.0625 7.8125 14.0625C11.2588 14.0625 14.0625 11.2588 14.0625 7.8125ZM7.8125 13.2812C4.79703 13.2812 2.34375 10.828 2.34375 7.8125C2.34375 4.79703 4.79703 2.34375 7.8125 2.34375C10.828 2.34375 13.2812 4.79703 13.2812 7.8125C13.2812 10.828 10.828 13.2812 7.8125 13.2812Z" fill="black"/>
<path d="M11.9655 6.64043C12.1669 6.56305 12.2674 6.33707 12.19 6.13566C11.8537 5.2602 11.268 4.51168 10.4963 3.97109C9.70621 3.41758 8.77816 3.125 7.8125 3.125C7.5968 3.125 7.42188 3.29992 7.42188 3.51562C7.42188 3.73133 7.5968 3.90625 7.8125 3.90625C9.41793 3.90625 10.884 4.91477 11.4608 6.4159C11.4891 6.48965 11.5391 6.55308 11.6042 6.59782C11.6694 6.64256 11.7465 6.66652 11.8255 6.66652C11.8734 6.6665 11.9208 6.65765 11.9655 6.64043ZM12.1094 7.42188C11.8938 7.42188 11.7188 7.59688 11.7188 7.8125C11.7188 8.02812 11.8938 8.20312 12.1094 8.20312C12.325 8.20312 12.5 8.02812 12.5 7.8125C12.5 7.59688 12.325 7.42188 12.1094 7.42188Z" fill="black"/>
</g>
<defs>
<clipPath id="clip0_405_53">
<rect width="20" height="20" fill="white"/>
</clipPath>
</defs>
</svg>
