<svg width="13" height="13" viewBox="0 0 13 13" fill="none" xmlns="http://www.w3.org/2000/svg">
<g clip-path="url(#clip0_672_1401)">
<path d="M10.9935 4.48945L0.740967 4.0882L8.0019 3.0082L8.32628 2.96038L10.7132 2.60507L10.9935 4.48945Z" fill="#FBA616"/>
<path d="M8.27847 3.74976C8.27038 3.75082 8.26224 3.75144 8.25409 3.75164C8.21468 3.75155 8.17662 3.7373 8.14685 3.71149C8.11707 3.68567 8.09757 3.65001 8.0919 3.61101L8.0019 3.0082L8.32628 2.96039L8.41628 3.5632C8.4224 3.60616 8.41138 3.64981 8.38559 3.68471C8.35981 3.71962 8.32133 3.74298 8.27847 3.74976ZM10.8819 6.3907C10.7552 6.51734 10.669 6.6787 10.634 6.85437C10.599 7.03004 10.617 7.21214 10.6855 7.37762C10.754 7.54311 10.8701 7.68455 11.0191 7.78405C11.168 7.88356 11.3431 7.93666 11.5222 7.93664V9.97383H0.740967V7.93664C0.981029 7.93664 1.21126 7.84127 1.38101 7.67152C1.55076 7.50177 1.64612 7.27154 1.64612 7.03148C1.64612 6.79142 1.55076 6.56119 1.38101 6.39144C1.21126 6.22169 0.981029 6.12633 0.740967 6.12633V4.08914H11.5222V6.12633C11.4034 6.12618 11.2856 6.14946 11.1758 6.19482C11.0659 6.24018 10.966 6.30674 10.8819 6.3907Z" fill="#FBDD6B"/>
<path d="M10.8819 6.3907C10.7552 6.51734 10.669 6.6787 10.634 6.85437C10.599 7.03005 10.617 7.21214 10.6855 7.37763C10.754 7.54311 10.8701 7.68455 11.0191 7.78406C11.168 7.88356 11.3431 7.93666 11.5222 7.93664V9.97383H0.740967V7.93664C0.981029 7.93664 1.21126 7.84128 1.38101 7.67153C1.55076 7.50178 1.64612 7.27155 1.64612 7.03149C1.64612 6.79142 1.55076 6.56119 1.38101 6.39144C1.21126 6.22169 0.981029 6.12633 0.740967 6.12633V4.08914H11.5222V6.12633C11.4034 6.12619 11.2856 6.14946 11.1758 6.19482C11.0659 6.24018 10.966 6.30675 10.8819 6.3907Z" fill="#FBDD6B"/>
<path d="M8.93099 4.08914V4.69852C8.93099 4.74203 8.91371 4.78376 8.88294 4.81453C8.85217 4.84529 8.81044 4.86258 8.76693 4.86258C8.72342 4.86258 8.68169 4.84529 8.65092 4.81453C8.62015 4.78376 8.60287 4.74203 8.60287 4.69852V4.08914H8.93099ZM8.76693 7.28414C8.74537 7.28409 8.72401 7.2883 8.70409 7.29653C8.68416 7.30476 8.66605 7.31684 8.65081 7.33208C8.63556 7.34733 8.62348 7.36543 8.61525 7.38536C8.60703 7.40529 8.60282 7.42665 8.60287 7.4482V8.53102C8.60287 8.57453 8.62015 8.61626 8.65092 8.64703C8.68169 8.67779 8.72342 8.69508 8.76693 8.69508C8.81044 8.69508 8.85217 8.67779 8.88294 8.64703C8.91371 8.61626 8.93099 8.57453 8.93099 8.53102V7.4482C8.93094 7.40471 8.91364 7.36301 8.88288 7.33225C8.85213 7.30149 8.81042 7.28419 8.76693 7.28414ZM8.76693 5.36789C8.74537 5.36784 8.72401 5.37205 8.70409 5.38028C8.68416 5.38851 8.66605 5.40059 8.65081 5.41583C8.63556 5.43108 8.62348 5.44918 8.61525 5.46911C8.60703 5.48904 8.60282 5.5104 8.60287 5.53195V6.61477C8.60287 6.65828 8.62015 6.70001 8.65092 6.73078C8.68169 6.76154 8.72342 6.77883 8.76693 6.77883C8.81044 6.77883 8.85217 6.76154 8.88294 6.73078C8.91371 6.70001 8.93099 6.65828 8.93099 6.61477V5.53195C8.93094 5.48846 8.91364 5.44676 8.88288 5.416C8.85213 5.38524 8.81042 5.36794 8.76693 5.36789ZM8.93099 9.36445V9.97383H8.60287V9.36445C8.60287 9.32094 8.62015 9.27921 8.65092 9.24844C8.68169 9.21768 8.72342 9.20039 8.76693 9.20039C8.81044 9.20039 8.85217 9.21768 8.88294 9.24844C8.91371 9.27921 8.93099 9.32094 8.93099 9.36445ZM4.72593 5.63508H2.68921C2.6457 5.63508 2.60397 5.61779 2.5732 5.58703C2.54243 5.55626 2.52515 5.51453 2.52515 5.47102C2.52515 5.4275 2.54243 5.38577 2.5732 5.35501C2.60397 5.32424 2.6457 5.30695 2.68921 5.30695H4.72593C4.76944 5.30695 4.81117 5.32424 4.84194 5.35501C4.87271 5.38577 4.88999 5.4275 4.88999 5.47102C4.88999 5.51453 4.87271 5.55626 4.84194 5.58703C4.81117 5.61779 4.76944 5.63508 4.72593 5.63508ZM6.76255 6.67533H2.68921C2.6457 6.67533 2.60397 6.65804 2.5732 6.62728C2.54243 6.59651 2.52515 6.55478 2.52515 6.51127C2.52515 6.46775 2.54243 6.42602 2.5732 6.39526C2.60397 6.36449 2.6457 6.3472 2.68921 6.3472H6.76255C6.80607 6.3472 6.8478 6.36449 6.87856 6.39526C6.90933 6.42602 6.92662 6.46775 6.92662 6.51127C6.92662 6.55478 6.90933 6.59651 6.87856 6.62728C6.8478 6.65804 6.80607 6.67533 6.76255 6.67533ZM6.76255 7.71577H2.68921C2.6457 7.71577 2.60397 7.69848 2.5732 7.66771C2.54243 7.63695 2.52515 7.59522 2.52515 7.5517C2.52515 7.50819 2.54243 7.46646 2.5732 7.43569C2.60397 7.40493 2.6457 7.38764 2.68921 7.38764H6.76255C6.80607 7.38764 6.8478 7.40493 6.87856 7.43569C6.90933 7.46646 6.92662 7.50819 6.92662 7.5517C6.92662 7.59522 6.90933 7.63695 6.87856 7.66771C6.8478 7.69848 6.80607 7.71577 6.76255 7.71577ZM6.76255 8.75611H2.68921C2.6457 8.75611 2.60397 8.73883 2.5732 8.70806C2.54243 8.67729 2.52515 8.63556 2.52515 8.59205C2.52515 8.54854 2.54243 8.50681 2.5732 8.47604C2.60397 8.44527 2.6457 8.42799 2.68921 8.42799H6.76255C6.80607 8.42799 6.8478 8.44527 6.87856 8.47604C6.90933 8.50681 6.92662 8.54854 6.92662 8.59205C6.92662 8.63556 6.90933 8.67729 6.87856 8.70806C6.8478 8.73883 6.80607 8.75611 6.76255 8.75611Z" fill="#FBA616"/>
</g>
<defs>
<clipPath id="clip0_672_1401">
<rect width="12" height="12" fill="white" transform="translate(0.131592 0.289459)"/>
</clipPath>
</defs>
</svg>
