<svg width="18" height="19" viewBox="0 0 18 19" fill="none" xmlns="http://www.w3.org/2000/svg">
<g clip-path="url(#clip0_425_2366)">
<path d="M11.8719 12.5151C11.0333 13.3537 11.1381 15.0458 11.1381 15.0458H6.88523C6.88523 15.0458 6.97508 13.3537 6.15145 12.5151C5.23797 11.7064 4.65395 10.5384 4.65395 9.23552C4.65395 6.83952 6.6007 4.89276 8.99671 4.89276C11.3927 4.89276 13.3395 6.83952 13.3395 9.23552C13.3395 10.5384 12.7704 11.7064 11.8719 12.5151Z" fill="#FFD517"/>
<path d="M11.2579 16.3786C11.2579 16.6033 11.0782 16.783 10.8536 16.783H7.15478C6.93015 16.783 6.75045 16.6033 6.75045 16.3786C6.75045 16.154 6.93015 15.9743 7.15478 15.9743H10.8386C11.0633 15.9743 11.2579 16.154 11.2579 16.3786ZM10.7039 18.0558C10.7039 18.2805 10.5242 18.4602 10.2995 18.4602H7.70885C7.48423 18.4602 7.30453 18.2805 7.30453 18.0558C7.30453 17.8312 7.48423 17.6515 7.70885 17.6515H10.2995C10.5242 17.6515 10.7039 17.8312 10.7039 18.0558Z" fill="#E5E5E5"/>
<path d="M12.0965 12.6648C13.0699 11.7813 13.624 10.5384 13.624 9.23553C13.624 6.68978 11.5425 4.60825 8.99671 4.60825C6.45095 4.60825 4.36942 6.68978 4.36942 9.23553C4.36942 10.5683 4.95345 11.8412 5.9418 12.7097C6.67558 13.4435 6.6007 15.0009 6.6007 15.0159C6.6007 15.0908 6.63065 15.1656 6.67558 15.2255C6.73548 15.2854 6.81035 15.3154 6.88523 15.3154H11.1232C11.198 15.3154 11.2729 15.2854 11.3328 15.2255C11.3927 15.1656 11.4077 15.0908 11.4077 15.0159C11.4077 15.0009 11.3328 13.4435 12.0666 12.7097C12.0816 12.6948 12.0965 12.6798 12.0965 12.6648ZM11.6772 12.2904C11.6473 12.3054 11.6323 12.3354 11.6173 12.3653C10.9584 13.0691 10.8536 14.2222 10.8386 14.7613H7.16976C7.15478 14.2072 7.03498 13.0092 6.33115 12.3054C5.44763 11.5267 4.93847 10.4186 4.93847 9.25051C4.93847 7.00425 6.76543 5.19227 8.99671 5.19227C11.243 5.19227 13.0549 7.01923 13.0549 9.25051C13.0549 10.4036 12.5608 11.5267 11.6772 12.2904Z" fill="#210B20"/>
<path d="M8.99671 5.80625C8.84696 5.80625 8.71218 5.92605 8.71218 6.09078C8.71218 6.24053 8.83198 6.3753 8.99671 6.3753C10.6739 6.3753 12.0366 7.73803 12.0366 9.41524C12.0366 9.56499 12.1564 9.69976 12.3212 9.69976C12.4709 9.69976 12.6057 9.57996 12.6057 9.41524C12.6057 7.42356 10.9884 5.80625 8.99671 5.80625ZM11.5425 16.3786C11.5425 15.9893 11.228 15.6898 10.8536 15.6898H7.15478C6.76543 15.6898 6.46593 16.0043 6.46593 16.3786C6.46593 16.768 6.7804 17.0675 7.15478 17.0675H10.8386C11.228 17.0675 11.5425 16.768 11.5425 16.3786ZM10.8386 16.4984H7.15478C7.0799 16.4984 7.03498 16.4385 7.03498 16.3786C7.03498 16.3038 7.09488 16.2588 7.15478 16.2588H10.8386C10.9135 16.2588 10.9584 16.3187 10.9584 16.3786C10.9734 16.4535 10.9135 16.4984 10.8386 16.4984ZM10.2995 17.367H7.70885C7.3195 17.367 7.02 17.6815 7.02 18.0558C7.02 18.4452 7.33448 18.7447 7.70885 18.7447H10.2995C10.6889 18.7447 10.9884 18.4302 10.9884 18.0558C10.9884 17.6815 10.6739 17.367 10.2995 17.367ZM10.2995 18.1756H7.70885C7.63398 18.1756 7.58905 18.1157 7.58905 18.0558C7.58905 17.981 7.64895 17.936 7.70885 17.936H10.2995C10.3744 17.936 10.4193 17.9959 10.4193 18.0558C10.4193 18.1307 10.3744 18.1756 10.2995 18.1756ZM9.28123 2.94602V1.02922C9.28123 0.879465 9.16143 0.74469 8.99671 0.74469C8.84696 0.74469 8.71218 0.86449 8.71218 1.02922V2.961C8.71218 3.11075 8.83198 3.24552 8.99671 3.24552C9.16143 3.23055 9.28123 3.11075 9.28123 2.94602ZM13.7138 2.16732C13.5791 2.07747 13.4143 2.12239 13.3245 2.24219L12.2613 3.84452C12.1714 3.9793 12.2163 4.14402 12.3361 4.23387C12.3811 4.26382 12.441 4.2788 12.4859 4.2788C12.5757 4.2788 12.6656 4.23387 12.7255 4.159L13.7887 2.55667C13.8786 2.43687 13.8336 2.25717 13.7138 2.16732ZM5.61235 4.2189C5.65727 4.2189 5.71717 4.20392 5.7621 4.17397C5.89687 4.08412 5.92682 3.9194 5.85195 3.78462L4.81867 2.16732C4.72882 2.03254 4.5641 2.00259 4.42932 2.07747C4.29454 2.16732 4.2646 2.33204 4.33947 2.46682L5.37275 4.08412C5.43265 4.17397 5.5225 4.2189 5.61235 4.2189ZM1.64396 5.56665L3.33614 6.48013C3.38107 6.51008 3.42599 6.51008 3.47092 6.51008C3.57574 6.51008 3.66559 6.45018 3.72549 6.36033C3.80037 6.22555 3.75544 6.04585 3.60569 5.97098L1.91351 5.0575C1.77874 4.98263 1.59904 5.02755 1.52416 5.1773C1.46426 5.32705 1.50919 5.49178 1.64396 5.56665ZM14.5225 6.52505C14.5674 6.52505 14.6123 6.51008 14.6573 6.49511L16.3495 5.58163C16.4842 5.50675 16.5441 5.34203 16.4693 5.19228C16.3944 5.0575 16.2297 4.9976 16.0799 5.07248L14.3877 5.98595C14.2529 6.06083 14.193 6.22555 14.2679 6.3753C14.3128 6.46515 14.4177 6.52505 14.5225 6.52505Z" fill="#210B20"/>
</g>
<defs>
<clipPath id="clip0_425_2366">
<rect width="18" height="18" fill="white" transform="translate(0 0.74469)"/>
</clipPath>
</defs>
</svg>
