<svg width="18" height="13" viewBox="0 0 18 13" fill="none" xmlns="http://www.w3.org/2000/svg">
<path fill-rule="evenodd" clip-rule="evenodd" d="M3.22239 6.8906C4.04951 6.88878 4.84592 7.20377 5.44802 7.77087C4.56726 8.55794 3.96894 9.61215 3.74477 10.7719C3.57123 10.7899 3.39687 10.799 3.22239 10.7992C2.03834 10.8008 0.893713 10.3739 0 9.59717C0.280828 8.0458 1.64587 6.8906 3.22239 6.8906ZM3.22239 2.69016C3.577 2.69016 3.92365 2.79532 4.21851 2.99233C4.51336 3.18935 4.74317 3.46937 4.87887 3.79699C5.01458 4.12461 5.05009 4.48512 4.9809 4.83292C4.91172 5.18072 4.74096 5.5002 4.49021 5.75095C4.23946 6.0017 3.91998 6.17247 3.57218 6.24165C3.22438 6.31083 2.86387 6.27532 2.53625 6.13962C2.20863 6.00391 1.9286 5.7741 1.73159 5.47925C1.53457 5.1844 1.42942 4.83775 1.42942 4.48313C1.42988 4.00775 1.61893 3.55197 1.95508 3.21583C2.29123 2.87968 2.747 2.69063 3.22239 2.69016ZM11.7345 3.42595C11.7345 3.96684 11.5741 4.49559 11.2736 4.94533C10.9731 5.39507 10.546 5.7456 10.0462 5.95259C9.54652 6.15958 8.99664 6.21373 8.46614 6.10819C7.93564 6.00266 7.44835 5.74218 7.0659 5.35969C6.68344 4.97721 6.423 4.4899 6.3175 3.95939C6.21201 3.42888 6.2662 2.87901 6.47323 2.3793C6.68025 1.8796 7.03082 1.4525 7.48058 1.15204C7.93034 0.851572 8.45911 0.691229 9 0.691284C9.725 0.692131 10.4201 0.980525 10.9327 1.4932C11.4453 2.00587 11.7337 2.70095 11.7345 3.42595ZM12.9843 4.48299C12.9843 4.12833 13.0894 3.78162 13.2864 3.48671C13.4834 3.1918 13.7634 2.96193 14.0911 2.82617C14.4187 2.69041 14.7793 2.65487 15.1271 2.72402C15.475 2.79318 15.7945 2.96393 16.0453 3.21469C16.2961 3.46544 16.4669 3.78495 16.5362 4.13278C16.6054 4.48062 16.5699 4.84118 16.4342 5.16885C16.2985 5.49653 16.0687 5.77661 15.7738 5.97367C15.479 6.17073 15.1323 6.27593 14.7776 6.27596C14.3022 6.27551 13.8464 6.08648 13.5102 5.75034C13.174 5.4142 12.9848 4.95841 12.9843 4.48299ZM4.15948 10.9693C5.4967 12.1476 7.21771 12.7977 8.99998 12.7979C10.7822 12.7981 12.5034 12.1483 13.8409 10.9704C13.4448 8.61596 11.3843 6.85523 9 6.85523C6.61679 6.85523 4.55625 8.61561 4.15948 10.9695V10.9693ZM12.552 7.77066C13.1541 7.20356 13.9505 6.88857 14.7776 6.89039C16.3548 6.89039 17.7199 8.0459 18 9.59742C17.1062 10.374 15.9616 10.8009 14.7776 10.7991C14.6031 10.7989 14.4288 10.7898 14.2552 10.7718C14.0312 9.61203 13.4328 8.55781 12.552 7.77087V7.77066Z" fill="url(#paint0_linear_583_84)"/>
<defs>
<linearGradient id="paint0_linear_583_84" x1="5.3538" y1="13.2445" x2="13.3833" y2="1.31798" gradientUnits="userSpaceOnUse">
<stop stop-color="#617FC0"/>
<stop offset="1" stop-color="#20C4F4"/>
</linearGradient>
</defs>
</svg>
