<svg width="50" height="50" viewBox="0 0 50 50" fill="none" xmlns="http://www.w3.org/2000/svg">
<circle cx="25" cy="25" r="25" fill="#EAB308"/>
<g clip-path="url(#clip0_303_1326)">
<path d="M24.5 13C17.6078 13 12 18.6078 12 25.5C12 32.3922 17.6078 38 24.5 38C31.3922 38 37 32.3922 37 25.5C37 18.6078 31.3922 13 24.5 13ZM31.4862 22.2105L23.4975 30.1366C23.0276 30.6065 22.2757 30.6378 21.7744 30.1679L17.5451 26.3145C17.0439 25.8446 17.0125 25.0614 17.4511 24.5602C17.9211 24.0589 18.7043 24.0276 19.2055 24.4975L22.5576 27.5677L29.7005 20.4248C30.2018 19.9236 30.985 19.9236 31.4862 20.4248C31.9875 20.9261 31.9875 21.7093 31.4862 22.2105Z" fill="white"/>
</g>
<defs>
<clipPath id="clip0_303_1326">
<rect width="25" height="25" fill="white" transform="translate(12 13)"/>
</clipPath>
</defs>
</svg>
