<svg width="50" height="50" viewBox="0 0 50 50" fill="none" xmlns="http://www.w3.org/2000/svg">
<circle cx="25" cy="25" r="25" fill="#22C55E"/>
<g clip-path="url(#clip0_303_1306)">
<path d="M35.575 33.9786C35.3585 33.5968 35.0024 33.321 34.5806 33.2129V27.4589C35.2742 27.2786 35.7903 26.6528 35.7903 25.9032V24.6282L33.2585 17.0323H29.5956C29.0472 14.7242 26.9734 13 24.5 13C22.0266 13 19.9528 14.7242 19.4044 17.0323H15.7415L13.2097 24.6282V25.9032C13.2097 26.6528 13.7258 27.2786 14.4194 27.4589V33.2129C13.9976 33.3206 13.6415 33.5968 13.425 33.9786C12.6238 34.0722 12 34.7548 12 35.5806V38H37V35.5806C37 34.7548 36.3762 34.0722 35.575 33.9786ZM34.9839 25.9032C34.9839 26.348 34.6222 26.7097 34.1774 26.7097C33.7327 26.7097 33.371 26.348 33.371 25.9032V25.0968H34.9839V25.9032ZM32.677 17.8387L34.8278 24.2903H33.2911L31.8573 17.8387H32.677ZM31.0315 17.8387L32.4653 24.2903H30.8899L29.8145 17.8387H31.0315ZM32.5645 25.0968V25.9032C32.5645 26.348 32.2028 26.7097 31.7581 26.7097C31.3133 26.7097 30.9516 26.348 30.9516 25.9032V25.0968H32.5645ZM30.0726 24.2903H28.4899L28.227 21.9226C28.7254 21.4181 29.1185 20.8117 29.381 20.1399L30.0726 24.2903ZM30.1452 25.0968V25.9032C30.1452 26.348 29.7835 26.7097 29.3387 26.7097C28.894 26.7097 28.5323 26.348 28.5323 25.9032V25.0968H30.1452ZM24.5 13.8065C26.9456 13.8065 28.9355 15.7964 28.9355 18.2419C28.9355 19.7952 28.1315 21.1621 26.9194 21.9548V19.3944C27.6129 19.2141 28.129 18.5883 28.129 17.8387V15.8226H27.3226V17.8387C27.3226 18.1359 27.1593 18.3931 26.9194 18.5331V15.8226H26.1129V18.5331C25.873 18.3931 25.7097 18.1359 25.7097 17.8387V15.8226H24.9032V17.8387C24.9032 18.5883 25.4194 19.2141 26.1129 19.3944V22.3694C25.6121 22.5657 25.0694 22.6774 24.5 22.6774C23.9306 22.6774 23.3879 22.5657 22.8871 22.3694V19.3944C23.5806 19.2141 24.0968 18.5883 24.0968 17.8387C24.0968 17.0077 23.4685 15.4194 22.4839 15.4194C21.4992 15.4194 20.871 17.0077 20.871 17.8387C20.871 18.5883 21.3871 19.2141 22.0806 19.3944V21.9548C20.8685 21.1621 20.0645 19.7952 20.0645 18.2419C20.0645 15.7964 22.0544 13.8065 24.5 13.8065ZM26.1129 25.0968H27.7258V25.9032C27.7258 26.348 27.3641 26.7097 26.9194 26.7097C26.4746 26.7097 26.1129 26.348 26.1129 25.9032V25.0968ZM26.0911 24.2903L26.0335 23.254C26.5573 23.0931 27.0448 22.8516 27.4847 22.5456L27.6786 24.2903H26.0911ZM25.3065 25.0968V25.9032C25.3065 26.348 24.9448 26.7097 24.5 26.7097C24.0552 26.7097 23.6935 26.348 23.6935 25.9032V25.0968H25.3065ZM23.7165 24.2903L23.7645 23.4262C24.0056 23.4601 24.2496 23.4839 24.5 23.4839C24.7504 23.4839 24.9944 23.4601 25.2355 23.4262L25.2835 24.2903H23.7165ZM21.3214 24.2903L21.5153 22.5456C21.9552 22.8516 22.4427 23.0931 22.9665 23.254L22.9089 24.2903H21.3214ZM22.8871 25.0968V25.9032C22.8871 26.348 22.5254 26.7097 22.0806 26.7097C21.6359 26.7097 21.2742 26.348 21.2742 25.9032V25.0968H22.8871ZM22.4839 18.6452C22.0391 18.6452 21.6774 18.2835 21.6774 17.8387C21.6774 17.2359 22.1823 16.2258 22.4839 16.2258C22.7855 16.2258 23.2903 17.2359 23.2903 17.8387C23.2903 18.2835 22.9286 18.6452 22.4839 18.6452ZM19.619 20.1403C19.881 20.8121 20.2746 21.4181 20.773 21.923L20.5101 24.2903H18.9274L19.619 20.1403ZM20.4677 25.0968V25.9032C20.4677 26.348 20.106 26.7097 19.6613 26.7097C19.2165 26.7097 18.8548 26.348 18.8548 25.9032V25.0968H20.4677ZM19.1855 17.8387L18.1101 24.2903H16.5347L17.9685 17.8387H19.1855ZM18.0484 25.0968V25.9032C18.0484 26.348 17.6867 26.7097 17.2419 26.7097C16.7972 26.7097 16.4355 26.348 16.4355 25.9032V25.0968H18.0484ZM16.323 17.8387H17.1427L15.7089 24.2903H14.1722L16.323 17.8387ZM14.0161 25.9032V25.0968H15.629V25.9032C15.629 26.348 15.2673 26.7097 14.8226 26.7097C14.3778 26.7097 14.0161 26.348 14.0161 25.9032ZM19.2581 37.1935H12.8065V36.3871H19.2581V37.1935ZM12.8065 35.5806C12.8065 35.1359 13.1681 34.7742 13.5976 34.7742L13.9661 34.7956L14.0653 34.5109C14.1786 34.1859 14.4831 33.9677 14.8226 33.9677C14.8786 33.9677 14.9387 33.9762 15.0113 33.9931L15.2556 34.052L15.4161 33.8589C15.7274 33.4839 16.3367 33.4839 16.6484 33.8589L16.8089 34.052L17.0532 33.9931C17.1258 33.9762 17.1859 33.9677 17.2419 33.9677C17.5815 33.9677 17.8859 34.1859 17.9988 34.5109L18.098 34.7956L18.3992 34.781C18.4222 34.7798 18.4444 34.777 18.4516 34.7742C18.8964 34.7742 19.2581 35.1359 19.2581 35.5806H12.8065ZM27.3226 37.1935H21.6774V29.129H27.3226V37.1935ZM28.9355 35.5806V37.1935H28.129V28.3226H20.871V37.1935H20.0645V35.5806C20.0645 34.7548 19.4407 34.0722 18.6395 33.9786C18.3343 33.4403 17.7544 33.106 17.0996 33.1681C16.5919 32.7141 15.8089 32.654 15.2258 32.9839V27.4597C15.5419 27.3774 15.8226 27.2065 16.0323 26.9685C16.3278 27.3044 16.7609 27.5161 17.2419 27.5161C17.723 27.5161 18.156 27.3044 18.4516 26.969C18.7472 27.3044 19.1802 27.5161 19.6613 27.5161C20.1423 27.5161 20.5754 27.3044 20.871 26.969C21.1665 27.3044 21.5996 27.5161 22.0806 27.5161C22.5617 27.5161 22.9948 27.3044 23.2903 26.969C23.5859 27.3044 24.019 27.5161 24.5 27.5161C24.981 27.5161 25.4141 27.3044 25.7097 26.969C26.0052 27.3044 26.4383 27.5161 26.9194 27.5161C27.4004 27.5161 27.8335 27.3044 28.129 26.969C28.4246 27.3044 28.8577 27.5161 29.3387 27.5161C29.8198 27.5161 30.2528 27.3044 30.5484 26.969C30.844 27.3044 31.277 27.5161 31.7581 27.5161C32.2391 27.5161 32.6722 27.3044 32.9677 26.969C33.1774 27.2069 33.4581 27.3782 33.7742 27.4601V32.9843C33.1911 32.654 32.4081 32.7141 31.9004 33.1685C31.2472 33.1056 30.6653 33.4407 30.3605 33.979C29.5593 34.0722 28.9355 34.7548 28.9355 35.5806ZM36.1935 37.1935H29.7419V36.3871H36.1935V37.1935ZM29.7419 35.5806C29.7419 35.1359 30.1036 34.7742 30.5331 34.7742L30.9016 34.7956L31.0008 34.5109C31.1141 34.1859 31.4185 33.9677 31.7581 33.9677C31.8141 33.9677 31.8742 33.9762 31.9468 33.9931L32.1911 34.052L32.3516 33.8589C32.6629 33.4839 33.2722 33.4839 33.5839 33.8589L33.7444 34.052L33.9887 33.9931C34.0613 33.9762 34.1214 33.9677 34.1774 33.9677C34.5169 33.9677 34.8214 34.1859 34.9343 34.5109L35.0335 34.7956L35.3347 34.781C35.3577 34.7798 35.3798 34.777 35.3871 34.7742C35.8319 34.7742 36.1935 35.1359 36.1935 35.5806H29.7419Z" fill="white"/>
<path d="M22.4839 32.7581H23.2903V33.5645H22.4839V32.7581ZM16.4355 28.7258V31.9516H19.6613V28.7258H16.4355ZM18.8548 31.1452H17.2419V29.5323H18.8548V31.1452ZM29.3387 28.7258V31.9516H32.5645V28.7258H29.3387ZM31.7581 31.1452H30.1452V29.5323H31.7581V31.1452Z" fill="white"/>
</g>
<defs>
<clipPath id="clip0_303_1306">
<rect width="25" height="25" fill="white" transform="translate(12 13)"/>
</clipPath>
</defs>
</svg>
