<svg width="50" height="50" viewBox="0 0 50 50" fill="none" xmlns="http://www.w3.org/2000/svg">
<circle cx="25" cy="25" r="25" fill="#A855F7"/>
<path d="M24.5191 18.3885C20.9807 18.3885 18.0898 21.2794 18.0898 24.8178C18.0898 26.6679 18.8993 28.4487 20.2638 29.6513C21.2813 30.6688 21.1888 32.8427 21.1657 32.8659C21.1657 32.9815 21.1888 33.074 21.2813 33.1665C21.3507 33.2359 21.4663 33.2822 21.5589 33.2822H27.4562C27.5718 33.2822 27.6643 33.2359 27.7337 33.1665C27.8031 33.0971 27.8493 32.9815 27.8493 32.8659C27.8493 32.8427 27.7337 30.6688 28.7513 29.6513L28.8206 29.5819C30.162 28.3562 30.9483 26.6217 30.9483 24.8178C30.9483 21.2794 28.0575 18.3885 24.5191 18.3885ZM28.2194 29.05C28.1962 29.0731 28.15 29.1193 28.15 29.1425C27.248 30.1138 27.0861 31.7095 27.063 32.4727H21.952C21.9289 31.7095 21.767 30.0444 20.7957 29.05C19.57 27.9861 18.853 26.4366 18.853 24.7946C18.853 21.6725 21.3738 19.1517 24.4959 19.1517C27.6181 19.1517 30.1389 21.6725 30.1389 24.7946C30.1389 26.4366 29.4451 27.9861 28.2194 29.05Z" fill="white"/>
<path d="M24.4959 20.0305C24.2878 20.0305 24.1028 20.2155 24.1028 20.4237C24.1028 20.6318 24.2878 20.8168 24.4959 20.8168C26.8317 20.8168 28.705 22.7132 28.705 25.0259C28.705 25.234 28.89 25.4191 29.0982 25.4191C29.3063 25.4191 29.4913 25.234 29.4913 25.0259C29.5145 22.2738 27.2712 20.0305 24.4959 20.0305ZM27.063 33.7216H21.9289C21.397 33.7216 20.9576 34.161 20.9576 34.6929C20.9576 35.2248 21.397 35.6642 21.9289 35.6642H27.0399C27.5949 35.6411 28.0343 35.2248 28.0343 34.6929C28.0343 34.161 27.5949 33.7216 27.063 33.7216ZM27.063 34.8548H21.9289C21.8364 34.8548 21.7439 34.7854 21.7439 34.6698C21.7439 34.5541 21.8132 34.4847 21.9289 34.4847H27.0399C27.1324 34.4847 27.2249 34.5541 27.2249 34.6698C27.2249 34.7854 27.1555 34.8548 27.063 34.8548ZM26.2998 36.0574H22.6921C22.1601 36.0574 21.7207 36.4968 21.7207 37.0287C21.7207 37.5606 22.1601 38 22.6921 38H26.2998C26.8317 38 27.2712 37.5606 27.2712 37.0287C27.2712 36.4736 26.8317 36.0574 26.2998 36.0574ZM26.2998 37.1906H22.6921C22.5996 37.1906 22.5071 37.1212 22.5071 37.0056C22.5071 36.8899 22.5764 36.8205 22.6921 36.8205H26.2998C26.3923 36.8205 26.4848 36.8899 26.4848 37.0056C26.4848 37.1212 26.3923 37.1906 26.2998 37.1906ZM24.4959 16.469C24.7272 16.469 24.8891 16.284 24.8891 16.0759V13.3932C24.8891 13.185 24.7041 13 24.4959 13C24.2878 13 24.1028 13.185 24.1028 13.3932V16.0759C24.1028 16.284 24.2878 16.469 24.4959 16.469ZM31.0408 14.9889C30.8558 14.8501 30.6245 14.9195 30.5089 15.0814L29.0288 17.3016C28.89 17.4866 28.9363 17.741 29.1213 17.8566C29.1907 17.9029 29.2601 17.926 29.3294 17.926C29.4682 17.926 29.5838 17.8566 29.6532 17.741L31.1333 15.5208C31.2721 15.3589 31.2258 15.1045 31.0408 14.9889ZM19.8012 17.8335C19.8706 17.8335 19.94 17.8104 20.0094 17.7641C20.1944 17.6485 20.2406 17.3941 20.125 17.2091L18.6911 14.9658C18.5755 14.7808 18.3211 14.7345 18.1361 14.8501C17.9511 14.9658 17.9048 15.2202 18.0205 15.4052L19.4543 17.6485C19.5468 17.7872 19.6625 17.8335 19.8012 17.8335ZM17.0029 20.2849L14.6671 19.013C14.4821 18.9204 14.2277 18.9898 14.1352 19.1748C14.0195 19.3599 14.0889 19.6142 14.2971 19.7068L16.6329 20.9787C16.7022 21.0019 16.7485 21.025 16.8179 21.025C16.9566 21.025 17.0954 20.9556 17.1648 20.8168C17.2573 20.6318 17.1879 20.3774 17.0029 20.2849ZM34.8799 19.1748C34.7873 18.9898 34.533 18.9204 34.3479 19.013L31.989 20.2849C31.804 20.3774 31.7346 20.6318 31.8271 20.8168C31.8965 20.9556 32.0353 21.025 32.174 21.025C32.2434 21.025 32.3128 21.0019 32.359 20.9787L34.718 19.7068C34.903 19.6142 34.9724 19.3599 34.8799 19.1748Z" fill="white"/>
</svg>
