<svg width="50" height="50" viewBox="0 0 50 50" fill="none" xmlns="http://www.w3.org/2000/svg">
<circle cx="25" cy="25" r="25" fill="#3B82F6"/>
<path d="M33.3912 26.3457H31.4578C31.6548 26.8853 31.7625 27.4676 31.7625 28.0744V35.3816C31.7625 35.6346 31.7184 35.8775 31.6383 36.1034H34.8347C36.0287 36.1034 37 35.132 37 33.938V29.9546C37 27.9647 35.3811 26.3457 33.3912 26.3457ZM17.2376 28.0745C17.2376 27.4676 17.3452 26.8853 17.5423 26.3458H15.6089C13.6189 26.3458 12 27.9647 12 29.9547V33.9381C12 35.1321 12.9713 36.1035 14.1653 36.1035H17.3617C17.2795 35.8717 17.2375 35.6276 17.2376 35.3816V28.0745ZM26.71 24.4656H22.29C20.3001 24.4656 18.6811 26.0845 18.6811 28.0745V35.3816C18.6811 35.7802 19.0043 36.1034 19.4029 36.1034H29.5972C29.9958 36.1034 30.3189 35.7803 30.3189 35.3816V28.0745C30.3189 26.0845 28.7 24.4656 26.71 24.4656ZM24.5 14.8965C22.1069 14.8965 20.1599 16.8435 20.1599 19.2367C20.1599 20.86 21.0558 22.2777 22.379 23.022C23.0066 23.3751 23.7301 23.5768 24.5 23.5768C25.2699 23.5768 25.9935 23.3751 26.6211 23.022C27.9443 22.2777 28.8402 20.8599 28.8402 19.2367C28.8402 16.8435 26.8932 14.8965 24.5 14.8965ZM16.8788 18.9419C15.089 18.9419 13.633 20.3979 13.633 22.1877C13.633 23.9775 15.089 25.4336 16.8788 25.4336C17.3186 25.4339 17.7539 25.3444 18.1579 25.1705C18.8369 24.8781 19.3967 24.3607 19.7432 23.7125C19.9941 23.2435 20.1252 22.7196 20.1247 22.1877C20.1247 20.398 18.6686 18.9419 16.8788 18.9419ZM32.1212 18.9419C30.3314 18.9419 28.8754 20.3979 28.8754 22.1877C28.8748 22.7196 29.0059 23.2435 29.2569 23.7125C29.6033 24.3607 30.1632 24.8782 30.8422 25.1705C31.2461 25.3444 31.6814 25.4339 32.1212 25.4336C33.911 25.4336 35.3671 23.9775 35.3671 22.1877C35.3671 20.3979 33.911 18.9419 32.1212 18.9419Z" fill="white"/>
</svg>
